<svg xmlns="http://www.w3.org/2000/svg" x="0px" y="0px"
width="50" height="50"
viewBox="0 0 172 172"
style=" fill:#000000;"><g fill="none" fill-rule="nonzero" stroke="none" stroke-width="1" stroke-linecap="butt" stroke-linejoin="miter" stroke-miterlimit="10" stroke-dasharray="" stroke-dashoffset="0" font-family="none" font-weight="none" font-size="none" text-anchor="none" style="mix-blend-mode: normal"><path d="M0,172v-172h172v172z" fill="none"></path><g fill="#007048"><path d="M145.4475,10.2125c-1.20937,0.17469 -2.23062,0.9675 -2.70094,2.09625c-0.45688,1.12875 -0.29563,2.41875 0.44344,3.38625c2.16344,2.98313 2.20375,4.56875 2.2575,6.88c-0.67187,-0.88687 -1.47812,-1.89469 -2.2575,-3.3325c-3.31906,-6.06031 -9.3525,-8.6 -9.3525,-8.6c-0.5375,-0.25531 -1.12875,-0.36281 -1.72,-0.3225c-1.29,0.1075 -2.41875,0.94063 -2.9025,2.15c0,0 -2.91594,6.06031 -1.72,12.255c0.71219,3.66844 2.63375,5.83188 4.1925,7.31c-0.3225,1.1825 -0.72562,2.99656 -2.365,5.9125c-2.10969,3.7625 -4.945,6.7725 -8.9225,6.7725c-0.80625,0 -2.92937,-0.77937 -5.59,-2.58c-2.66062,-1.80062 -5.89906,-4.46125 -9.46,-7.095c-7.10844,-5.2675 -15.81594,-10.965 -26.23,-10.965c-15.06344,0 -25.31625,7.43094 -31.4975,17.845c-6.18125,10.41406 -8.86875,23.63656 -10.965,36.6575c-2.09625,13.02094 -3.58781,25.8 -6.45,34.9375c-1.43781,4.56875 -3.18469,8.18344 -5.2675,10.4275c-2.08281,2.24406 -4.3,3.3325 -7.74,3.3325c-7.91469,0 -10.535,-7.955 -10.535,-7.955c-0.22844,-1.34375 -1.22281,-2.41875 -2.52625,-2.75469c-1.31687,-0.33594 -2.70094,0.12094 -3.5475,1.1825c-0.84656,1.06156 -0.99438,2.51281 -0.37625,3.72219c0,0 4.44781,12.685 16.985,12.685c0.65844,0 1.30344,-0.06719 1.935,-0.1075c0.04031,0 0.06719,0 0.1075,0c8.37156,-0.57781 14.82156,-4.67625 19.35,-10.32c4.87781,-6.10062 7.80719,-13.89437 10.105,-21.3925c2.29781,-7.49812 3.93719,-14.84844 5.6975,-19.995c0.45688,-1.34375 0.94063,-1.92156 1.3975,-2.9025c0.83313,5.64375 2.4725,10.37375 4.3,13.545c1.30344,2.2575 2.365,3.99094 2.9025,5.4825c0.5375,1.49156 0.63156,2.62031 0.1075,4.4075c-0.59125,2.02906 -2.84875,4.58219 -5.4825,7.2025c-2.63375,2.62031 -6.03344,5.40188 -6.02,10.105c0.04031,15.73531 -2.40531,22.05094 -4.515,25.2625c-1.06156,1.59906 -2.15,2.43219 -3.3325,3.7625c-1.1825,1.33031 -2.4725,3.56094 -2.4725,6.1275c0,2.0425 1.11531,4.04469 2.58,5.0525c1.46469,1.00781 2.98313,1.29 4.3,1.29c3.09063,0 5.42875,-1.72 7.525,-3.7625c2.09625,-2.0425 4.07156,-4.68969 5.805,-7.6325c3.46688,-5.88562 6.27531,-12.91344 7.31,-19.0275c0.67188,-3.91031 2.10969,-6.27531 4.4075,-8.6c2.29781,-2.32469 5.53625,-4.50156 9.03,-7.31c6.35594,-5.11969 13.16875,-13.07469 16.4475,-28.0575c1.30344,0.645 1.38406,0.98094 3.3325,1.505c3.19813,0.84656 7.35031,1.1825 11.395,-0.3225c0.16125,0.69875 0.33594,1.41094 0.5375,2.0425c0.90031,2.82188 1.935,5.0525 2.365,6.5575c0.43,1.505 0.40313,1.55875 0.1075,1.935c-0.09406,0.09406 -0.12094,0.24188 -0.215,0.3225c-1.3975,1.22281 -2.55312,1.53188 -3.44,1.1825c-1.16906,-0.67187 -2.63375,-0.59125 -3.72219,0.20156c-1.08844,0.79281 -1.62594,2.15 -1.35719,3.46687c0.26875,1.33031 1.29,2.37844 2.60687,2.67406c3.88344,1.51844 7.78031,-0.05375 10.4275,-2.365c0.29563,-0.25531 0.48375,-0.59125 0.7525,-0.86c0.12094,-0.09406 0.22844,-0.20156 0.3225,-0.3225c2.01563,-2.13656 3.48031,-4.68969 3.87,-7.6325c0.34938,-2.6875 0.61813,-6.10062 1.29,-9.245c0.67188,-3.14437 1.81406,-5.83187 3.3325,-7.095c6.235,-5.20031 8.7075,-12.47 10.6425,-17.5225c0.9675,-2.52625 1.92156,-4.50156 2.4725,-5.16c0.28219,-0.3225 0.26875,-0.33594 0.215,-0.3225c-0.04031,0.01344 0.16125,0.02688 0.43,0.1075c0.06719,0.01344 0.01344,-0.04031 0.1075,0c3.02344,2.4725 6.62469,3.27875 9.46,3.225c2.64719,-0.05375 4.00438,-0.44344 4.73,-0.645l8.2775,1.1825c1.38406,0.17469 2.75469,-0.49719 3.44,-1.72c0,0 0.84656,-1.35719 1.3975,-3.225c0.55094,-1.86781 1.03469,-4.73 -0.7525,-7.4175c-1.1825,-1.77375 -3.15781,-3.88344 -5.0525,-5.9125c-1.89469,-2.02906 -3.5475,-3.655 -3.5475,-3.655c-0.37625,-0.67187 -1.96187,-3.72219 -5.375,-6.88c-1.11531,-1.03469 -2.15,-1.86781 -3.1175,-2.58c-0.04031,-0.04031 -0.06719,-0.06719 -0.1075,-0.1075c-0.04031,-0.04031 -0.06719,-0.08062 -0.1075,-0.1075c-0.02687,-0.06719 -0.06719,-0.14781 -0.1075,-0.215c-1.11531,-1.89469 -0.91375,-3.17125 -0.9675,-5.9125c-0.05375,-2.74125 -0.65844,-6.61125 -3.655,-10.75c-0.65844,-0.95406 -1.74687,-1.51844 -2.9025,-1.505c-0.1075,0 -0.215,0 -0.3225,0zM134.805,19.8875c0.87344,0.81969 1.74688,1.55875 2.365,2.6875c3.06375,5.59 6.5575,8.2775 6.5575,8.2775c0.26875,0.18813 0.55094,0.3225 0.86,0.43c0,0 3.26531,1.31688 7.4175,5.16c2.72781,2.52625 4.6225,5.805 4.6225,5.805c0.14781,0.26875 0.3225,0.52406 0.5375,0.7525c0,0 1.70656,1.69313 3.5475,3.655c1.84094,1.96188 3.93719,4.50156 4.3,5.0525c-0.04031,-0.05375 -0.06719,0.5375 -0.215,1.29l-5.9125,-0.86c-0.49719,-0.08062 -1.02125,-0.04031 -1.505,0.1075c0,0 -1.70656,0.49719 -3.87,0.5375c-2.16344,0.04031 -4.25969,-0.34937 -5.59,-1.8275c-0.37625,-0.43 -0.86,-0.76594 -1.3975,-0.9675c-1.505,-0.56437 -3.17125,-0.76594 -4.73,-0.3225c-1.55875,0.44344 -2.76812,1.43781 -3.655,2.4725c-1.77375,2.08281 -2.64719,4.58219 -3.655,7.2025c-2.01562,5.22719 -4.20594,11.0725 -8.6,14.7275c-3.45344,2.87563 -4.87781,7.02781 -5.6975,10.8575c-0.08062,0.40313 -0.14781,0.77938 -0.215,1.1825c-0.9675,-3.99094 -0.98094,-8.37156 3.44,-14.835c0.81969,-1.10187 0.91375,-2.56656 0.24188,-3.7625c-0.68531,-1.1825 -2.00219,-1.86781 -3.35938,-1.72c-1.02125,0.13438 -1.935,0.72563 -2.4725,1.6125c-3.34594,4.89125 -4.63594,9.47344 -4.945,13.545c-3.02344,2.08281 -6.20812,1.96188 -9.1375,1.1825c-3.18469,-0.84656 -5.4825,-2.365 -5.4825,-2.365c-0.9675,-0.68531 -2.21719,-0.81969 -3.30562,-0.36281c-1.10188,0.45688 -1.88125,1.45125 -2.06938,2.62031c-2.52625,16.58188 -8.65375,22.80344 -15.05,27.95c-3.19812,2.58 -6.47687,4.8375 -9.46,7.8475c-2.98312,3.01 -5.54969,6.94719 -6.45,12.255c-0.83312,4.91813 -3.30562,11.62344 -6.3425,16.77c-1.51844,2.58 -3.18469,4.71656 -4.6225,6.1275c-1.23625,1.20938 -1.98875,1.505 -2.365,1.6125c0.09406,-0.17469 -0.05375,-0.33594 0.3225,-0.7525c0.76594,-0.87344 2.33813,-2.29781 3.87,-4.6225c3.06375,-4.63594 5.73781,-12.55062 5.6975,-29.025c0,-0.51062 1.38406,-2.58 3.9775,-5.16c2.59344,-2.58 5.99313,-5.64375 7.31,-10.2125c0.91375,-3.14437 0.57781,-6.11406 -0.3225,-8.6c-0.90031,-2.48594 -2.21719,-4.55531 -3.44,-6.665c-2.43219,-4.23281 -4.68969,-8.65375 -4.085,-17.0925c0.05375,-0.92719 -0.26875,-1.84094 -0.88687,-2.53969c-0.63156,-0.68531 -1.51844,-1.08844 -2.44563,-1.11531c-2.91594,-0.06719 -5.52281,1.66625 -7.095,3.7625c-1.57219,2.09625 -2.55312,4.63594 -3.5475,7.525c-1.98875,5.79156 -3.61469,13.16875 -5.805,20.3175c-1.20937,3.96406 -2.62031,7.76688 -4.3,11.2875c2.44563,-9.51375 3.78938,-20.855 5.59,-32.035c2.06938,-12.77906 4.79719,-25.35656 10.105,-34.2925c5.30781,-8.93594 12.63125,-14.405 25.585,-14.405c7.82063,0 15.33219,4.6225 22.145,9.675c3.39969,2.52625 6.62469,5.02563 9.675,7.095c3.05031,2.06938 5.92594,3.87 9.46,3.87c7.4175,0 12.255,-5.54969 14.9425,-10.32c2.6875,-4.77031 3.655,-9.46 3.655,-9.46c0.30906,-1.33031 -0.18812,-2.72781 -1.29,-3.5475c0,0 -2.98312,-2.44562 -3.44,-4.8375c-0.22844,-1.20937 0.22844,-2.01562 0.5375,-3.5475z"></path></g></g></svg>